<!-- Generated by IcoMoon.io -->
<svg version="1.1" xmlns="http://www.w3.org/2000/svg" width="32" height="32" viewBox="0 0 32 32">
<title>navi.inline</title>
<path d="M28.047 14.253c-1.203 0.003-2.215 0.82-2.516 1.928l-0.004 0.018h-5.647c-0.327-1.949-2.002-3.416-4.020-3.416s-3.693 1.467-4.017 3.392l-0.003 0.024h-5.653c-0.305-1.133-1.324-1.953-2.534-1.953-1.447 0-2.62 1.173-2.62 2.62s1.173 2.62 2.62 2.62c1.21 0 2.228-0.82 2.53-1.935l0.004-0.018h5.653c0.327 1.949 2.002 3.416 4.020 3.416s3.693-1.467 4.017-3.392l0.003-0.024h5.647c0.305 1.129 1.321 1.947 2.527 1.947 1.443 0 2.613-1.17 2.613-2.613s-1.17-2.613-2.613-2.613c-0.002 0-0.005 0-0.007 0h0zM15.86 19.587c-1.517 0-2.747-1.23-2.747-2.747s1.23-2.747 2.747-2.747c1.517 0 2.747 1.23 2.747 2.747v0c0 0.008 0 0.017 0 0.027 0 1.517-1.23 2.747-2.747 2.747-0 0-0 0-0 0v0z"></path>
</svg>
